<?xml version="1.0" encoding="utf-8"?>
<!-- Generator: Adobe Illustrator 16.0.4, SVG Export Plug-In . SVG Version: 6.00 Build 0)  -->
<!DOCTYPE svg PUBLIC "-//W3C//DTD SVG 1.1//EN" "http://www.w3.org/Graphics/SVG/1.1/DTD/svg11.dtd">
<svg version="1.1" id="Laag_1" xmlns="http://www.w3.org/2000/svg" xmlns:xlink="http://www.w3.org/1999/xlink" x="0px" y="0px"
	 width="348.955px" height="358.666px" viewBox="0 0 348.955 358.666" enable-background="new 0 0 348.955 358.666"
	 xml:space="preserve">
<path fill-rule="evenodd" clip-rule="evenodd" fill="#FFFFFF" d="M336.191,183.424c-0.025,90.32-72.473,161.404-164.424,161.336
	c-87.76-0.066-159.103-73.559-159.003-163.793c0.098-88.055,73.307-159.469,163.38-159.375
	C264.408,21.684,336.217,94.293,336.191,183.424z M282.879,263.012c37.309-46.711,39.492-126.992-16.416-178.966
	c-54.768-50.913-139.814-47.744-190.622,6.609c-51.452,55.043-42.912,133.047-9.434,172.029
	c35.895-52.383,71.736-104.689,108.121-157.784C211.023,158.158,246.898,210.506,282.879,263.012z M174.521,151.814
	c-30.43,44.43-60.268,87.996-90.037,131.461c52.314,49.533,136.291,43.941,179.875-0.328
	C234.626,239.549,204.861,196.098,174.521,151.814z"/>
</svg>
